<?xml version="1.0" standalone="no"?>
<!DOCTYPE svg PUBLIC "-//W3C//DTD SVG 20010904//EN"
 "http://www.w3.org/TR/2001/REC-SVG-20010904/DTD/svg10.dtd">
<svg version="1.0" xmlns="http://www.w3.org/2000/svg"
 width="750.000000pt" height="762.000000pt" viewBox="0 0 750.000000 762.000000"
 preserveAspectRatio="xMidYMid meet">

<g transform="translate(0.000000,762.000000) scale(0.100000,-0.100000)"
fill="#000000" stroke="none">
<path d="M0 3810 l0 -3810 3750 0 3750 0 0 3810 0 3810 -3750 0 -3750 0 0
-3810z m3830 3143 c108 -145 282 -317 465 -461 23 -19 173 -119 210 -141 118
-71 253 -138 365 -181 47 -18 93 -36 102 -41 10 -5 25 -9 33 -9 8 0 23 -4 33
-9 15 -8 84 -27 182 -51 104 -25 186 -33 392 -37 215 -5 296 0 448 28 25 5 61
11 80 14 19 4 64 13 99 21 35 9 67 12 71 7 12 -14 -15 -311 -31 -328 -5 -5 -9
-18 -9 -30 0 -11 -10 -56 -21 -100 -11 -44 -25 -100 -30 -124 -5 -25 -14 -59
-19 -75 -5 -17 -28 -103 -51 -191 -22 -88 -44 -169 -49 -180 -4 -11 -15 -49
-25 -85 -9 -36 -21 -73 -26 -82 -5 -10 -9 -23 -9 -30 0 -12 -12 -52 -109 -363
-67 -213 -98 -310 -111 -340 -5 -11 -16 -45 -25 -75 -9 -30 -20 -64 -25 -75
-5 -11 -20 -54 -35 -95 -44 -125 -87 -244 -95 -265 -4 -11 -20 -51 -35 -90
-15 -38 -31 -79 -36 -90 -4 -11 -29 -72 -54 -135 -26 -63 -55 -134 -66 -157
-10 -24 -19 -46 -19 -49 0 -3 -14 -36 -31 -73 -17 -36 -35 -77 -41 -91 -6 -14
-14 -33 -19 -42 -25 -48 -21 -50 191 -69 203 -18 396 -41 480 -58 l35 -7 3
-137 c2 -132 4 -138 25 -147 12 -4 83 -13 157 -20 74 -6 167 -15 205 -21 39
-5 115 -14 170 -19 165 -16 373 -44 380 -52 4 -4 -82 -101 -239 -273 -159
-173 -176 -192 -176 -197 0 -3 58 -102 128 -219 70 -118 155 -259 187 -314 33
-55 65 -109 72 -120 21 -35 26 -46 20 -51 -4 -4 -73 3 -257 26 -324 41 -412
50 -715 74 -287 23 -540 37 -615 35 l-65 -3 -2 155 c-1 85 -2 159 -2 165 -1
12 -49 19 -261 35 -236 19 -379 24 -397 16 -10 -5 -37 -34 -60 -65 -67 -90
-110 -140 -223 -252 -172 -173 -317 -278 -488 -356 -52 -23 -96 -45 -99 -48
-16 -16 -97 7 -203 57 -43 20 -208 119 -227 136 -10 9 -41 34 -68 55 -92 73
-276 260 -367 374 l-90 112 -56 -1 c-122 -2 -579 -36 -593 -44 -5 -4 -9 -75
-9 -160 0 -84 -2 -159 -5 -167 -4 -9 -20 -12 -55 -10 -97 7 -803 -43 -1080
-77 -47 -6 -107 -13 -135 -16 -59 -7 -144 -18 -273 -34 -51 -7 -97 -11 -102
-9 -12 4 -12 4 166 301 211 351 234 391 234 406 0 11 -75 96 -215 246 -11 11
-42 46 -69 76 -27 29 -68 73 -90 96 -22 24 -37 45 -34 48 9 9 192 38 328 51
25 3 101 11 170 19 69 7 179 19 245 25 66 6 135 13 152 16 l32 5 3 142 3 142
40 7 c85 14 295 40 430 53 155 16 246 28 250 36 3 4 -15 54 -41 111 -25 57
-52 117 -59 133 -25 57 -141 347 -212 530 -8 22 -19 49 -23 60 -8 19 -72 203
-107 305 -8 25 -19 54 -23 65 -4 11 -15 43 -25 70 -9 28 -20 59 -25 70 -4 11
-27 81 -50 155 -23 74 -46 146 -50 160 -5 14 -22 72 -40 130 -17 58 -35 116
-40 130 -4 14 -16 52 -25 85 -9 33 -20 71 -25 85 -8 24 -29 101 -52 185 -6 22
-14 51 -19 65 -8 25 -55 206 -70 270 -4 19 -15 64 -24 100 -61 243 -93 500
-63 500 6 0 41 -7 77 -15 252 -58 349 -68 610 -62 206 4 290 12 391 37 143 36
184 48 255 73 44 15 94 33 111 38 58 17 321 156 420 221 230 151 467 367 603
552 39 53 77 96 84 96 6 -1 41 -40 77 -87z"/>
<path d="M3454 5912 c-21 -15 -61 -79 -76 -122 -9 -25 -19 -79 -22 -120 -10
-133 18 -132 74 3 18 42 38 77 45 77 7 0 21 -21 31 -47 9 -27 21 -52 26 -57
21 -24 5 -25 -23 -2 -17 14 -35 26 -40 26 -5 0 -9 -20 -9 -45 0 -57 -13 -78
-115 -185 -97 -103 -198 -251 -260 -383 -70 -149 -55 -177 75 -144 30 8 58 13
62 10 9 -5 -29 -83 -76 -158 -78 -124 -92 -175 -49 -175 24 1 46 21 129 120
98 118 173 222 224 310 79 138 150 240 167 240 14 0 15 -10 9 -85 -7 -93 -1
-135 19 -135 13 0 30 31 60 113 22 57 38 66 77 44 31 -18 66 -22 84 -9 15 9
54 87 54 107 0 19 -20 19 -46 0 -29 -22 -36 -19 -91 35 -46 45 -56 50 -97 50
-39 0 -52 -6 -105 -50 -71 -59 -137 -138 -182 -218 -18 -31 -40 -67 -49 -79
l-17 -21 -17 29 c-10 16 -34 37 -54 47 -34 16 -37 21 -34 55 4 57 69 173 127
231 96 94 204 136 352 136 l102 0 37 36 c27 24 44 34 59 30 34 -9 49 7 28 32
-20 24 -172 102 -198 102 -18 0 -18 -21 0 -77 6 -19 4 -23 -15 -23 -35 0 -72
49 -124 166 -27 60 -55 117 -64 127 -15 17 -58 23 -78 9z"/>
<path d="M4203 5896 c-16 -13 -35 -37 -43 -53 -8 -15 -27 -48 -41 -73 -168
-283 -168 -280 11 -411 56 -41 98 -60 105 -48 4 5 0 18 -8 27 -31 35 -59 115
-53 155 6 37 6 37 -29 37 -44 0 -44 9 0 85 19 33 51 90 71 128 20 37 40 67 44
67 12 0 20 -40 20 -102 0 -61 15 -108 35 -108 29 0 40 33 40 119 0 75 -4 91
-26 126 -47 73 -83 87 -126 51z"/>
<path d="M2983 5215 c-26 -18 -145 -158 -275 -321 -143 -179 -179 -207 -315
-243 -24 -7 -43 -15 -43 -19 1 -38 74 -62 186 -62 l94 0 0 -45 c0 -25 -6 -78
-14 -118 -29 -145 -57 -343 -60 -422 -5 -104 18 -255 41 -273 24 -17 33 3 49
108 17 111 57 241 77 254 12 8 21 7 31 -4 18 -19 81 -327 97 -475 11 -106 8
-335 -7 -467 -11 -99 33 -61 71 59 10 32 21 67 25 78 12 31 30 104 42 170 15
88 22 419 9 495 -32 193 -40 238 -66 340 -9 36 -19 77 -22 92 -7 34 -38 68
-63 68 -11 0 -49 -25 -86 -56 -36 -31 -68 -53 -71 -51 -5 5 36 143 93 315 31
92 30 108 -3 129 -16 9 -30 18 -32 20 -3 2 52 93 72 118 141 177 217 287 217
316 0 14 -23 11 -47 -6z"/>
<path d="M4267 5144 c-13 -13 -7 -36 29 -118 19 -44 39 -90 44 -101 11 -27 28
-101 35 -155 25 -191 74 -301 252 -570 71 -107 138 -213 148 -235 18 -36 20
-60 18 -258 -2 -234 -4 -247 -53 -247 -46 0 -221 93 -289 154 -57 51 -108 76
-153 76 -9 0 -37 -9 -62 -20 -55 -23 -71 -19 -149 38 -28 21 -63 43 -77 49
-39 18 -103 46 -260 112 -190 80 -241 111 -290 172 -62 78 -90 153 -105 279
-6 52 -18 75 -34 66 -17 -11 -14 -230 4 -300 36 -136 121 -244 243 -305 52
-26 195 -79 299 -111 23 -7 56 -25 73 -39 26 -22 33 -38 45 -111 22 -125 20
-150 -9 -150 -13 0 -29 -6 -35 -14 -7 -8 -19 -81 -26 -163 -8 -81 -17 -167
-20 -190 l-6 -43 39 0 c38 0 40 1 50 43 6 23 14 68 17 100 4 31 11 60 15 62 9
5 18 -59 23 -150 2 -47 4 -50 34 -56 17 -3 35 -3 40 0 22 15 30 166 18 311
-13 149 -23 198 -50 262 -8 21 -15 40 -15 43 0 9 48 -6 101 -31 27 -13 53 -24
59 -24 14 0 85 -42 115 -68 14 -12 41 -46 59 -75 38 -59 61 -77 120 -97 31
-10 46 -10 77 0 40 14 55 33 36 47 -7 5 -38 17 -69 27 -59 20 -118 68 -144
119 -20 38 -12 57 26 57 24 0 45 -13 88 -53 89 -83 106 -91 192 -92 88 0 134
22 172 83 20 33 23 51 25 166 2 71 5 131 7 133 2 3 12 -12 21 -31 42 -88 62
47 27 175 -25 89 -51 131 -179 284 -206 247 -226 277 -252 376 -14 49 -1 121
38 211 27 66 32 105 17 141 -17 41 -39 60 -166 145 -104 69 -149 90 -163 76z"/>
<path d="M3475 4850 c-9 -14 10 -33 88 -87 26 -18 63 -55 83 -83 42 -59 77
-80 133 -80 124 0 182 96 111 181 -49 61 -84 71 -255 77 -119 4 -154 2 -160
-8z"/>
<path d="M4234 4219 c-4 -7 16 -32 49 -61 31 -26 66 -64 78 -84 20 -33 21 -43
14 -143 -6 -94 -4 -109 9 -114 28 -11 42 2 86 81 34 59 44 87 44 120 -1 52
-13 66 -130 148 -89 62 -134 78 -150 53z"/>
<path d="M3091 3932 c-15 -29 -14 -73 8 -172 23 -112 67 -213 153 -357 106
-177 218 -384 225 -415 l6 -28 94 0 95 0 -7 43 c-7 49 -11 60 -54 149 -19 39
-63 102 -109 154 -162 183 -246 297 -286 389 -32 74 -48 113 -70 176 -9 25
-22 54 -30 64 -13 18 -14 18 -25 -3z"/>
<path d="M4538 3934 c-14 -7 -32 -28 -38 -46 -7 -18 -19 -49 -26 -68 -18 -46
-18 -114 1 -149 18 -36 71 -81 95 -81 21 0 19 8 -18 110 -35 95 -36 100 -14
100 28 0 67 -34 86 -75 29 -60 66 -36 66 44 0 53 -12 82 -55 129 -41 47 -62
54 -97 36z"/>
<path d="M3060 3165 c-10 -12 -11 -38 -4 -113 l9 -97 48 -3 c37 -2 47 0 47 12
0 16 -24 87 -39 116 -5 9 -12 30 -15 47 -10 42 -29 58 -46 38z"/>
<path d="M3280 3003 c-11 -14 -19 -31 -17 -37 4 -12 101 -16 132 -6 17 6 14
11 -24 38 -53 39 -64 39 -91 5z"/>
<path d="M3110 2888 c-245 -11 -662 -37 -765 -48 -49 -5 -169 -16 -265 -25
-96 -9 -194 -20 -218 -25 -23 -6 -64 -10 -90 -11 -26 0 -94 -8 -152 -17 l-105
-17 0 -535 c0 -529 0 -535 20 -533 11 1 74 9 140 18 120 17 232 30 335 40 30
3 100 10 155 16 199 22 438 38 875 59 279 13 979 13 1285 -1 465 -20 823 -42
891 -53 22 -4 93 -11 159 -17 171 -14 282 -26 430 -44 72 -9 144 -17 160 -18
l30 -2 0 535 0 535 -140 18 c-77 10 -169 22 -205 27 -36 5 -139 16 -230 25
-91 9 -208 20 -260 25 -499 51 -1490 74 -2050 48z m556 -139 c8 -14 40 -10 54
6 15 18 50 20 50 3 0 -7 -9 -28 -20 -45 -22 -37 -47 -42 -86 -17 -23 16 -26
15 -44 -1 -26 -24 -49 -14 -43 19 9 44 68 68 89 35z m-603 -134 c77 -32 117
-131 117 -291 0 -150 -32 -228 -107 -259 -45 -19 -73 -19 -121 0 -64 26 -99
92 -122 230 -20 127 24 263 102 309 49 30 81 32 131 11z m578 -105 c26 -63 54
-140 64 -170 38 -113 43 -96 38 104 l-6 187 48 -3 49 -3 -3 -270 c-1 -148 -5
-273 -7 -277 -3 -5 -23 -8 -45 -8 -38 0 -40 2 -63 53 -33 70 -93 225 -101 260
-17 69 -25 26 -25 -138 l0 -176 -42 3 -43 3 -3 278 -2 278 47 -3 48 -3 46
-115z m457 -103 c-3 -249 -1 -261 56 -255 52 5 59 35 64 271 l4 207 27 -1 c14
-1 37 -4 50 -8 23 -6 24 -9 22 -106 -1 -55 -6 -157 -11 -227 -8 -106 -13 -133
-32 -162 -32 -50 -77 -69 -149 -64 -68 5 -88 20 -120 86 -21 45 -22 55 -16
255 4 114 9 212 12 218 4 5 26 9 51 9 l45 0 -3 -223z m557 192 c79 -22 103
-38 121 -85 22 -58 8 -111 -41 -156 l-35 -31 30 -18 c94 -58 72 -208 -37 -255
-35 -15 -199 -19 -220 -6 -17 11 3 473 23 545 4 14 17 17 62 17 31 0 75 -5 97
-11z m-2121 -9 c35 -5 71 -19 91 -34 35 -27 75 -101 75 -140 0 -14 5 -28 10
-31 14 -8 13 -130 -1 -174 -25 -79 -33 -92 -70 -125 -45 -41 -101 -59 -184
-60 l-60 -1 -12 190 c-6 105 -15 229 -19 277 l-7 87 34 5 c19 3 45 7 59 9 14
3 25 5 25 6 0 0 26 -3 59 -9z m2523 -24 c3 -2 -3 -108 -13 -235 -9 -127 -14
-234 -11 -237 3 -4 35 -9 71 -11 l66 -6 0 -39 0 -40 -102 7 c-162 10 -149 0
-142 108 3 50 9 128 14 172 5 44 12 129 16 189 l7 108 45 -6 c25 -3 47 -8 49
-10z m-2832 -6 c3 -5 3 -25 -1 -45 -6 -32 -9 -35 -43 -35 -77 0 -111 -52 -111
-168 0 -96 21 -163 63 -198 26 -22 38 -25 78 -22 42 4 48 2 53 -16 15 -56 9
-64 -50 -72 -68 -8 -128 8 -167 44 -96 90 -118 315 -41 430 23 36 76 76 109
85 36 9 104 7 110 -3z m3264 -30 c46 -5 86 -12 89 -14 2 -3 1 -22 -3 -42 l-6
-37 -64 6 c-38 4 -67 2 -70 -4 -4 -5 -9 -35 -12 -65 -7 -66 0 -74 70 -74 53 0
61 -9 49 -55 -8 -29 -10 -29 -73 -30 l-64 0 -3 -76 -3 -76 32 -7 c17 -3 47 -6
65 -6 34 0 34 0 34 -46 l0 -46 -57 7 c-32 4 -86 11 -120 14 -34 4 -64 9 -66
11 -6 8 26 326 49 503 8 55 6 54 153 37z"/>
<path d="M2975 2526 c-63 -46 -56 -316 10 -373 21 -19 29 -21 45 -11 37 23 45
56 44 178 0 116 -10 165 -42 203 -18 21 -32 22 -57 3z"/>
<path d="M4585 2497 c-4 -17 -5 -55 -3 -82 4 -58 17 -65 66 -35 29 18 32 24
32 69 0 40 -4 53 -22 65 -38 27 -66 21 -73 -17z"/>
<path d="M4581 2286 c-6 -7 -11 -48 -13 -91 l-3 -80 31 -3 c19 -2 40 5 57 18
37 29 39 106 5 137 -29 26 -64 34 -77 19z"/>
<path d="M2474 2398 c16 -259 20 -283 39 -286 28 -6 65 24 83 66 16 40 15 186
-2 250 -13 48 -59 92 -96 92 l-31 0 7 -122z"/>
<path d="M1315 2439 c-44 -5 -125 -13 -180 -19 -55 -5 -158 -17 -230 -26 -71
-9 -159 -19 -194 -23 -36 -3 -66 -10 -68 -16 -3 -10 45 -66 250 -289 59 -64
107 -123 107 -131 0 -14 -50 -102 -233 -408 -59 -98 -107 -183 -107 -188 0 -5
-4 -9 -10 -9 -5 0 -10 -10 -10 -21 0 -20 3 -21 48 -14 84 12 175 23 292 34 63
6 129 14 145 17 53 11 373 37 743 60 61 4 112 10 112 13 0 4 -35 19 -77 34
-43 16 -87 32 -98 37 -11 4 -72 27 -135 50 -63 23 -129 48 -147 56 -17 8 -40
14 -52 14 -21 0 -21 0 -21 420 l0 420 -27 -1 c-16 -1 -64 -6 -108 -10z"/>
<path d="M6058 2035 l-3 -416 -65 -24 c-36 -13 -110 -39 -165 -59 -55 -19
-108 -40 -117 -46 -10 -5 -24 -10 -32 -10 -7 0 -27 -7 -42 -15 -16 -8 -36 -15
-44 -15 -8 0 -26 -9 -39 -19 -23 -18 -22 -18 90 -25 307 -18 632 -44 809 -65
214 -25 268 -32 321 -41 70 -13 99 -13 99 0 0 9 -46 88 -177 303 -29 48 -53
89 -53 92 0 2 -32 56 -71 120 -39 63 -69 120 -67 125 2 5 64 76 138 156 74 81
156 170 181 198 26 27 45 56 42 62 -2 7 -34 14 -71 17 -37 3 -125 13 -197 22
-71 8 -179 20 -240 26 -60 5 -146 14 -190 19 -44 6 -85 10 -92 10 -10 0 -13
-88 -15 -415z"/>
<path d="M2020 1679 c-41 -4 -97 -10 -125 -13 -265 -33 -265 -33 -265 -45 0
-4 19 -14 43 -22 23 -7 53 -19 67 -26 14 -7 29 -13 35 -13 8 0 98 -33 263 -96
35 -14 67 -22 73 -19 5 4 9 53 9 110 0 100 -5 137 -19 133 -3 -1 -40 -5 -81
-9z"/>
<path d="M5387 1674 c-11 -11 -9 -222 3 -229 9 -6 116 28 175 56 22 10 194 72
268 96 27 9 44 20 39 25 -9 9 -99 22 -277 39 -55 6 -123 13 -150 15 -28 3 -53
2 -58 -2z"/>
</g>
</svg>
